<svg width="24" height="24" viewBox="0 0 24 24" fill="none" xmlns="http://www.w3.org/2000/svg">
<path d="M13.028 2.001C13.7577 1.9982 14.4875 2.00554 15.217 2.023L15.411 2.03C15.635 2.038 15.856 2.048 16.123 2.06C17.187 2.11 17.913 2.278 18.55 2.525C19.21 2.779 19.766 3.123 20.322 3.679C20.8304 4.17861 21.2238 4.78295 21.475 5.45C21.722 6.087 21.89 6.814 21.94 7.878C21.952 8.144 21.962 8.366 21.97 8.59L21.976 8.784C21.9938 9.51319 22.0014 10.2426 21.999 10.972L22 11.718V13.028C22.0025 13.7577 21.9948 14.4875 21.977 15.217L21.971 15.411C21.963 15.635 21.953 15.856 21.941 16.123C21.891 17.187 21.721 17.913 21.475 18.55C21.2246 19.2178 20.8311 19.8226 20.322 20.322C19.822 20.8303 19.2173 21.2238 18.55 21.475C17.913 21.722 17.187 21.89 16.123 21.94C15.856 21.952 15.635 21.962 15.411 21.97L15.217 21.976C14.4875 21.9938 13.7577 22.0014 13.028 21.999L12.282 22H10.973C10.2433 22.0025 9.51353 21.9948 8.784 21.977L8.59 21.971C8.35261 21.9624 8.11527 21.9524 7.878 21.941C6.814 21.891 6.088 21.721 5.45 21.475C4.78268 21.2243 4.17824 20.8308 3.679 20.322C3.17005 19.8223 2.77623 19.2176 2.525 18.55C2.278 17.913 2.11 17.187 2.06 16.123C2.04886 15.8857 2.03886 15.6484 2.03 15.411L2.025 15.217C2.00656 14.4875 1.99823 13.7577 2 13.028V10.972C1.99721 10.2426 2.00454 9.5132 2.022 8.784L2.029 8.59C2.037 8.366 2.047 8.144 2.059 7.878C2.109 6.813 2.277 6.088 2.524 5.45C2.77537 4.78262 3.16996 4.17845 3.68 3.68C4.1789 3.17075 4.78296 2.77657 5.45 2.525C6.088 2.278 6.813 2.11 7.878 2.06L8.59 2.03L8.784 2.025C9.51318 2.00657 10.2426 1.99824 10.972 2L13.028 2.001ZM12 7.001C11.3375 6.99163 10.6798 7.11403 10.065 7.36107C9.4502 7.60811 8.89065 7.97488 8.41885 8.44006C7.94704 8.90523 7.5724 9.45954 7.31669 10.0708C7.06097 10.682 6.92929 11.3379 6.92929 12.0005C6.92929 12.6631 7.06097 13.319 7.31669 13.9302C7.5724 14.5415 7.94704 15.0958 8.41885 15.5609C8.89065 16.0261 9.4502 16.3929 10.065 16.6399C10.6798 16.887 11.3375 17.0094 12 17C13.3261 17 14.5979 16.4732 15.5355 15.5355C16.4732 14.5979 17 13.3261 17 12C17 10.6739 16.4732 9.40215 15.5355 8.46447C14.5979 7.52679 13.3261 7.001 12 7.001ZM12 9.001C12.3985 8.99366 12.7945 9.0658 13.1648 9.21321C13.5351 9.36062 13.8723 9.58034 14.1568 9.85955C14.4412 10.1387 14.6672 10.4718 14.8214 10.8393C14.9757 11.2069 15.0552 11.6014 15.0553 12C15.0553 12.3986 14.976 12.7932 14.8218 13.1607C14.6677 13.5283 14.4418 13.8614 14.1575 14.1407C13.8731 14.42 13.536 14.6399 13.1657 14.7874C12.7955 14.9349 12.3995 15.0072 12.001 15C11.2054 15 10.4423 14.6839 9.87968 14.1213C9.31707 13.5587 9.001 12.7957 9.001 12C9.001 11.2044 9.31707 10.4413 9.87968 9.87868C10.4423 9.31607 11.2054 9 12.001 9L12 9.001ZM17.25 5.501C16.9274 5.51391 16.6223 5.65115 16.3986 5.88397C16.1749 6.11679 16.05 6.42714 16.05 6.75C16.05 7.07287 16.1749 7.38321 16.3986 7.61603C16.6223 7.84885 16.9274 7.98609 17.25 7.999C17.5815 7.999 17.8995 7.86731 18.1339 7.63288C18.3683 7.39846 18.5 7.08052 18.5 6.749C18.5 6.41748 18.3683 6.09954 18.1339 5.86512C17.8995 5.6307 17.5815 5.499 17.25 5.499V5.501Z" fill="white"/>
</svg>
